<svg xmlns="http://www.w3.org/2000/svg" xmlns:xlink="http://www.w3.org/1999/xlink" viewBox="0 0 434.19 468.04"><defs><clipPath id="clip-path" transform="translate(-28.17 -16.89)"><path d="M49.62,437.63c-15.62-27.13-3-59.22,6.65-86.34A476.11,476.11,0,0,0,81.73,217.42c1.25-28.45.1-57.85,10.69-84.29C123.18,59.68,214,46.18,285.28,51.84c40,1.48,86.71,9.08,110,45.17,24.87,40,6.84,90,15.18,133.8,7.91,41.41,38.43,76.74,41.72,118.77C455.79,458.87,393,470.4,263.49,468.3c-42.25-.68-111.56-.43-153.79-2.79C86.84,464.23,63,461.17,49.62,437.63Z" style="fill:#fdc7ca"/></clipPath></defs><g id="OBJECTS"><path d="M49.62,437.63c-15.62-27.13-3-59.22,6.65-86.34A476.11,476.11,0,0,0,81.73,217.42c1.25-28.45.1-57.85,10.69-84.29C123.18,59.68,214,46.18,285.28,51.84c40,1.48,86.71,9.08,110,45.17,24.87,40,6.84,90,15.18,133.8,7.91,41.41,38.43,76.74,41.72,118.77C455.79,458.87,393,470.4,263.49,468.3c-42.25-.68-111.56-.43-153.79-2.79C86.84,464.23,63,461.17,49.62,437.63Z" transform="translate(-28.17 -16.89)" style="fill:#fdc7ca"/><g style="clip-path:url(#clip-path)"><path d="M459.92,313S381.62,342,257.83,342s-211.74-14.4-211.74-14.4S23.72,409.82,29,430.07,91.87,479,228.88,476.19s210.76-20,225.09-34.63S459.92,313,459.92,313Z" transform="translate(-28.17 -16.89)" style="fill:#fff"/><path d="M459.92,321.51s-78.3,29.08-202.09,29.08-211.74-14.4-211.74-14.4S23.72,418.37,29,438.62s62.91,48.93,199.92,46.12,210.76-20,225.09-34.63S459.92,321.51,459.92,321.51Z" transform="translate(-28.17 -16.89)" style="fill:#a2bed0"/><path d="M30.71,435.68s45.24-41,205.07-41,219.94,29.64,219.94,29.64,5.59,20.93-25.16,34.91-211.24,23.06-255.21,25.16S48.19,480.65,30.71,435.68Z" transform="translate(-28.17 -16.89)" style="fill:#b9cc88"/><path d="M90.46,430.85A12.2,12.2,0,0,1,101,432" transform="translate(-28.17 -16.89)" style="fill:none;stroke:#1d1d1b;stroke-linecap:round;stroke-linejoin:round;stroke-width:0.5px"/><path d="M104.48,435.84A12,12,0,0,1,117.74,439" transform="translate(-28.17 -16.89)" style="fill:none;stroke:#1d1d1b;stroke-linecap:round;stroke-linejoin:round;stroke-width:0.5px"/><path d="M278.38,451.33a12.46,12.46,0,0,1,13.78-4.39" transform="translate(-28.17 -16.89)" style="fill:none;stroke:#1d1d1b;stroke-linecap:round;stroke-linejoin:round;stroke-width:0.5px"/><path d="M292.52,450.85A13.3,13.3,0,0,1,304,446.63" transform="translate(-28.17 -16.89)" style="fill:none;stroke:#1d1d1b;stroke-linecap:round;stroke-linejoin:round;stroke-width:0.5px"/><path d="M421.47,418.67a9.84,9.84,0,0,0-3.85,7.69,13.09,13.09,0,0,0-10,7.73" transform="translate(-28.17 -16.89)" style="fill:none;stroke:#1d1d1b;stroke-linecap:round;stroke-linejoin:round;stroke-width:0.5px"/><path d="M233.12,406.2a8.17,8.17,0,0,1,8,1.93,11.79,11.79,0,0,1,11.86-1.4" transform="translate(-28.17 -16.89)" style="fill:none;stroke:#1d1d1b;stroke-linecap:round;stroke-linejoin:round;stroke-width:0.5px"/></g><path d="M356.72,204.19a20.17,20.17,0,0,1,21.54-29.93c.37-4.38,1.19-8.88,3.5-12.62s6.48-6.59,10.86-6.22a12,12,0,0,1,8.07,4.69,25.9,25.9,0,0,1,4.18,8.57c6.78-2.73,16.53.69,20.22,7a15.92,15.92,0,0,1-3.67,19.77c3.86.21,7.22,1.73,10.84,3.08s6.95,4,8.12,7.72c1.76,5.58-2.05,11.7-7.18,14.54S422,224,416.14,224.24A20.46,20.46,0,0,1,400,235.85a20,20,0,0,1-18-7.95c-2.78,5.83-10.29,11.23-16.66,12.26a20.41,20.41,0,0,1-17.66-5.87c-4.34,1.54-9.83,3.26-14.43,3.58a14.06,14.06,0,0,1-5.37-.4,5.82,5.82,0,0,1-3.83-3.54,6,6,0,0,1,2-5.94,17.59,17.59,0,0,1,5.78-3.12c-3.67-6.2-1.26-15.27,4.25-19.9S351.25,199.51,356.72,204.19Z" transform="translate(-28.17 -16.89)" style="fill:#fff2ee"/><path d="M96,159.85a18.81,18.81,0,0,1,35.17-6.9c6.11-5.17,16.81-6.26,23.35-1.65A18.78,18.78,0,0,1,161,172.61c5.57.17,10.53,3,12.33,8.27a13.78,13.78,0,0,1-19.93,16.38c.38,5.53-5,11.1-9.8,13.89a30.25,30.25,0,0,1-28.72.67c-5.13,8.73-16.1,14.44-26.23,14.34a29.52,29.52,0,0,1-24.94-14.81c-4.33.64-10,2.91-14.37,2.31s-8.68-2.6-11.11-6.25c-3.33-5-2.14-12.18,1.85-16.69s10.2-6.6,16.22-6.74c-.15-9.5,4.31-19.69,12.1-25.14S89.31,153.05,96,159.85Z" transform="translate(-28.17 -16.89)" style="fill:#fff2ee"/><circle cx="349.03" cy="129.11" r="25.18" transform="translate(-17.24 267.72) rotate(-45)" style="fill:#fff"/><ellipse cx="241.81" cy="422.72" rx="114.87" ry="9.07" style="fill:#1d1d1b"/><path d="M355.53,409.12c-4.43-7-5.83-10.95-6.76-14.45s-1.63-5.36-1.63-5.36-5.83,4.9-5.36,8.62-6.52,4.2-6.52,4.2l-20.74-4.2-15.85-71.3s-.87-26.68-4.16-35L277,274.91l-28.35-5c-3.75,4.85-14.41,18.41-21.05,24.09-8.15,7-47.3,13.75-58.39,16.55s-10.11,5.12-10.11,5.12a25.46,25.46,0,0,0,1.19,5.36,3.14,3.14,0,0,1-1.66,4l4.9,15.61L159,344.06l28.47,74.38s-13.43,8.39-13,9.09,6.06.23,8.15,3.72c0,0,18.43.24,30-4.19,0,0,3.37-19.8,1-27.26s-11-20.74-11-20.74L186.36,325l55.3,4s17.58,24.7,28.56,60.82,23.09,33.55,36.14,36.12,49.17,1.16,49.17,1.16S360,416.11,355.53,409.12Z" transform="translate(-28.17 -16.89)" style="fill:#e4dcd6"/><path d="M119,287.11s5.16,14.13,6,20.65A61.09,61.09,0,0,0,132.54,330c4.42,7.82,44.73,77.72,44.73,77.72s4.65,17.24,10.6,17.71l3.31-4.43-26-76.94-20-23.71-16.78-34.49Z" transform="translate(-28.17 -16.89)" style="fill:#efbf46"/><path d="M135.11,310.47s.13,8.82,6.82,23.79,35.34,73.46,35.34,73.46" transform="translate(-28.17 -16.89)" style="fill:none;stroke:#1d1d1b;stroke-linecap:round;stroke-linejoin:round;stroke-width:0.5px"/><path d="M158.87,287.26s-4.2-12.54-15.85-17.34-19.8,6.62-17.71,13.61,7.23,7.92,11.42,17.24S147,329,154.44,332.23Z" transform="translate(-28.17 -16.89)" style="fill:#1d1d1b"/><path d="M184.27,293.78c8.85-2.56,34.48-8.62,38.44-11.42,2.83-2,9-10.26,12.26-14.85l-7.48-1.31s-63.26,18.73-68.62,21.06-13.05,7.22-11.19,19.1c.39,2.49.92,5.07,1.5,7.59.13-2.77.52-5.63,1.53-7.12C153,303.4,175.41,296.34,184.27,293.78Z" transform="translate(-28.17 -16.89)" style="fill:#e4dcd6"/><path d="M210.13,17.2c-2.76-.4-8-.79-12.54,1.46-14.51,41.46-20.21,116.67-21.28,132.73a50.86,50.86,0,0,0,12.95,1.74c.72-11.32,6.37-92.84,21.86-135.78Z" transform="translate(-28.17 -16.89)" style="fill:#ededf1"/><path d="M189.53,29.78c-3.17,14-14.84,71.3-16.47,91.11s-1.79,28.87-1.79,28.87a42,42,0,0,0,5,1.63c1.07-16.06,6.77-91.27,21.28-132.73C194.06,20.39,190.91,23.69,189.53,29.78Z" transform="translate(-28.17 -16.89)" style="fill:#649dc5"/><path d="M211.12,17.35C195.63,60.29,190,141.81,189.26,153.13a36.45,36.45,0,0,0,11-1.63S220.38,32.34,220.85,26.05C221.28,20.18,215.83,18.16,211.12,17.35Z" transform="translate(-28.17 -16.89)" style="fill:#e4dcd6"/><path d="M211.53,35.61q-.48,5.47-.94,11" transform="translate(-28.17 -16.89)" style="fill:none;stroke:#1d1d1b;stroke-linecap:round;stroke-linejoin:round;stroke-width:0.5px"/><path d="M213.4,41.66l-1.17,10.26" transform="translate(-28.17 -16.89)" style="fill:none;stroke:#1d1d1b;stroke-linecap:round;stroke-linejoin:round;stroke-width:0.5px"/><path d="M178.85,105.75q.71,6.28,1.4,12.58" transform="translate(-28.17 -16.89)" style="fill:none;stroke:#1d1d1b;stroke-linecap:round;stroke-linejoin:round;stroke-width:0.5px"/><path d="M178,114.83a82.67,82.67,0,0,1,1.87,13.75" transform="translate(-28.17 -16.89)" style="fill:none;stroke:#1d1d1b;stroke-linecap:round;stroke-linejoin:round;stroke-width:0.5px"/><path d="M238.68,233.57s-32.05,8.48-37.06,6.73-17.35-46.13-17.35-46.13l13.68-7s16.61,34.17,20.22,36.48,22.73-1,22.73-1Z" transform="translate(-28.17 -16.89)" style="fill:#af7158"/><path d="M283.76,159.16s5.33-7.66,5.33-7.66l-7.91-1.74Z" transform="translate(-28.17 -16.89)" style="fill:#1d1d1b;stroke:#1d1d1b;stroke-linecap:round;stroke-linejoin:round;stroke-width:0.5px"/><path d="M245.28,131.81s-1.1,25.08,6.11,27.7a13.45,13.45,0,0,0,6.33.87l1.38,7,25.18-6.29-2.62-9.58s8.92-17.95,5.77-20.48-9.79-9.43-12.76-9.26-29.45,6.73-29.45,6.73Z" transform="translate(-28.17 -16.89)" style="fill:#d19478"/><polygon points="229.55 143.49 235.67 142.26 230.22 146.85 229.55 143.49" style="fill:#1d1d1b;stroke:#1d1d1b;stroke-linecap:round;stroke-linejoin:round;stroke-width:0.5px"/><polyline points="228.1 117.45 226.37 127.82 230.35 127.82" style="fill:none;stroke:#1d1d1b;stroke-linecap:round;stroke-linejoin:round;stroke-width:0.5px"/><path d="M259.3,148.73l9.38-4.4S267.23,152.61,259.3,148.73Z" transform="translate(-28.17 -16.89)" style="fill:#fff"/><path d="M253.21,137.13a1,1,0,1,1-1-1A1,1,0,0,1,253.21,137.13Z" transform="translate(-28.17 -16.89)" style="fill:#1d1d1b"/><path d="M266,136.52a1,1,0,1,1-1-1A1,1,0,0,1,266,136.52Z" transform="translate(-28.17 -16.89)" style="fill:#1d1d1b"/><path d="M256.12,134.86c-.45.56-2.24-.83-4.38-.83s-3.92,1.39-4.37.83,1.27-3.67,4.37-3.67S256.56,134.31,256.12,134.86Z" transform="translate(-28.17 -16.89)" style="fill:#1d1d1b"/><path d="M270.83,134.86c-.45.56-2.24-.83-4.38-.83s-3.92,1.39-4.37.83,1.27-3.67,4.37-3.67S271.27,134.31,270.83,134.86Z" transform="translate(-28.17 -16.89)" style="fill:#1d1d1b"/><path d="M242.84,123.39s.55-1.63,3.35-3.38c0,0,2.21-12.58,13.69-15s21.78-.35,27.2,3.5S299.31,121.76,300,131.2s-3,17.82-4.89,20.09-17.83-15.4-17.83-15.4-1.39-1,5.95-4.52l-5.6-3.66-31.1-3.85Z" transform="translate(-28.17 -16.89)" style="fill:#414550"/><path d="M240.6,135.22c-2.62,3.14-8.22-5.6-5.95-8.57s18.18-5.59,26.22-4.71,21.32,4.37,23.41,6.55,1.75,3.58-1,2.88-16.43-4.89-21.32-4S245,130,240.6,135.22Z" transform="translate(-28.17 -16.89)" style="fill:#649dc5"/><path d="M277.29,135.89l4.37,15.61s5.94,2.42,9.27,2.77,5.94-2.28,3.14-7S277.29,135.89,277.29,135.89Z" transform="translate(-28.17 -16.89)" style="fill:#649dc5"/><path d="M239.63,133.1s3.71,17.4,3.21,30.64c0,0,2.71,4.22,16.26,2.23" transform="translate(-28.17 -16.89)" style="fill:none;stroke:#1d1d1b;stroke-linecap:round;stroke-linejoin:round;stroke-width:0.5px"/><path d="M242.84,163.74s-.36-5.42,40.64-5.61" transform="translate(-28.17 -16.89)" style="fill:none;stroke:#1d1d1b;stroke-linecap:round;stroke-linejoin:round;stroke-width:0.5px"/><path d="M281.66,151.5s-6.46-1.95-6.64-4.22,4.4-3.81,4.4-3.81" transform="translate(-28.17 -16.89)" style="fill:none;stroke:#1d1d1b;stroke-linecap:round;stroke-linejoin:round;stroke-width:0.5px"/><path d="M275.63,148.42a97.7,97.7,0,0,0-22.19-2.18c-11.14.38-20.1,3.4-18.71,9.87.84,3.89,8,4.07,8.11,4.19" transform="translate(-28.17 -16.89)" style="fill:none;stroke:#1d1d1b;stroke-linecap:round;stroke-linejoin:round;stroke-width:0.5px"/><path d="M277.29,135.89s-14.38-5.06-25.52-4.68-20.09,3.4-18.7,9.87c.83,3.89,8.58,4.07,8.74,4.19" transform="translate(-28.17 -16.89)" style="fill:none;stroke:#1d1d1b;stroke-linecap:round;stroke-linejoin:round;stroke-width:0.5px"/><path d="M288,121.76l-1.68,6.73a25.09,25.09,0,0,1,3.33,1.45l1.34-6.81A17.68,17.68,0,0,0,288,121.76Z" transform="translate(-28.17 -16.89)" style="fill:#fff"/><path d="M298.53,130.15a21.68,21.68,0,0,0-7.5-7l-1.34,6.81a56.61,56.61,0,0,1,8.84,5.95Z" transform="translate(-28.17 -16.89)" style="fill:#649dc5"/><path d="M251.52,113.2s.7,6.81,5.41,4.72,10-8.39,10-8.39-8.39,5.12-11,4.39S251.15,111.46,251.52,113.2Z" transform="translate(-28.17 -16.89)" style="fill:#fff"/><path d="M284.37,128.49s4.23-14.88-2.86-22.77" transform="translate(-28.17 -16.89)" style="fill:none;stroke:#1d1d1b;stroke-linecap:round;stroke-linejoin:round;stroke-width:0.5px"/><path d="M246.62,120.89l1-2.62" transform="translate(-28.17 -16.89)" style="fill:none;stroke:#1d1d1b;stroke-linecap:round;stroke-linejoin:round;stroke-width:0.5px"/><path d="M248.37,120.19a5.25,5.25,0,0,0,1-2.27" transform="translate(-28.17 -16.89)" style="fill:none;stroke:#1d1d1b;stroke-linecap:round;stroke-linejoin:round;stroke-width:0.5px"/><path d="M297.48,139.41a6.08,6.08,0,0,1-1.05,3.67" transform="translate(-28.17 -16.89)" style="fill:none;stroke:#1d1d1b;stroke-linecap:round;stroke-linejoin:round;stroke-width:0.5px"/><path d="M295.38,140.11a2.5,2.5,0,0,1-.52,1.92" transform="translate(-28.17 -16.89)" style="fill:none;stroke:#1d1d1b;stroke-linecap:round;stroke-linejoin:round;stroke-width:0.5px"/><path d="M285.62,130.68s.06-1.85-2.44-3-18.07-6.36-25.46-5.94-12.19,1.42-14.88,1.62" transform="translate(-28.17 -16.89)" style="fill:none;stroke:#1d1d1b;stroke-linecap:round;stroke-linejoin:round;stroke-width:0.5px"/><path d="M298,217.09a44.05,44.05,0,0,0,11.43-12.77,92.21,92.21,0,0,0-1.2-12.95c-5.56-2-8.57,9.38-8.57,9.38H293.2s.17-8.21,5.07-14c3.29-3.89,6.5-3.8,8.25-3.34-2.73-11.33-6.13-21.36-15-24.62-10-3.67-23.76-.28-30.76,4.46S244.18,192,244.18,192a5.55,5.55,0,0,0,2.79,1.58l-7.69,36.87a108.89,108.89,0,0,1-2.62,11.27c-1.39,4.37-7.51,18.09-7.51,18.09-3.41,1.05-3.76,5.5-1.66,6.38s9.61,2.79,29.36,7.51,37.66,17.91,37.66,17.91,1.31-13.29,2.14-18.44c-8.11-4.32-26.43-9.25-26.43-9.25.61-4,5.59-17.31,5.59-17.31,6.93.08,21.2,6,25,7.63,1.24-5.51,2.6-11.46,3.81-16.61-6.22-2.24-17.89-4.82-17.89-4.82C287.17,227.75,290.05,222.77,298,217.09Z" transform="translate(-28.17 -16.89)" style="fill:#efbf46"/><path d="M308.73,219.3a38.26,38.26,0,0,1-7.4,6.88l5.6,1.84c.23-.89.43-1.67.6-2.28A48.59,48.59,0,0,0,308.73,219.3Z" transform="translate(-28.17 -16.89)" style="fill:#efbf46"/><path d="M283,164.27c0,2.58-3.56,4.67-8,4.67s-7.95-2.09-7.95-4.67,3.56-4.67,7.95-4.67S283,161.69,283,164.27Z" transform="translate(-28.17 -16.89)" style="fill:#649dc5"/><path d="M254.05,185.11s2-8.39,5.77-13.11c0,0,12.41.79,18.09,4.9,0,0-5,10.48-5.33,12.75Z" transform="translate(-28.17 -16.89)" style="fill:#fff"/><path d="M270.22,263.93s18.32,4.93,26.43,9.25c.08-.48.15-.9.22-1.22.34-1.63,2-9.13,3.94-17.71-3.8-1.63-18.07-7.55-25-7.63C275.81,246.62,270.83,259.91,270.22,263.93Z" transform="translate(-28.17 -16.89)" style="fill:#fff"/><path d="M298.27,186.77c-4.9,5.77-5.07,14-5.07,14h6.46s3-11.4,8.57-9.38c-.21-1.24-.43-2.46-.7-3.64-.33-1.45-.67-2.88-1-4.3C304.77,183,301.56,182.88,298.27,186.77Z" transform="translate(-28.17 -16.89)" style="fill:#1d1d1b"/><path d="M308.73,219.3a99.8,99.8,0,0,0,.7-15A44.05,44.05,0,0,1,298,217.09c-7.95,5.68-10.83,10.66-11.27,15.73,0,0,11.67,2.58,17.89,4.82.89-3.83,1.7-7.19,2.31-9.62l-5.6-1.84A38.26,38.26,0,0,0,308.73,219.3Z" transform="translate(-28.17 -16.89)" style="fill:#1d1d1b"/><polygon points="247.46 183.45 257.34 167.72 259.93 168.42 247.46 183.45" style="fill:#1d1d1b;stroke:#1d1d1b;stroke-linecap:round;stroke-linejoin:round;stroke-width:0.5px"/><path d="M229.15,259.82s14.07,1.34,25,4.6" transform="translate(-28.17 -16.89)" style="fill:none;stroke:#1d1d1b;stroke-linecap:round;stroke-linejoin:round;stroke-width:0.5px"/><path d="M282.36,246.48c.16,1.47.31,3,.47,4.43" transform="translate(-28.17 -16.89)" style="fill:none;stroke:#1d1d1b;stroke-linecap:round;stroke-linejoin:round;stroke-width:0.5px"/><path d="M285.86,247.64v3.73" transform="translate(-28.17 -16.89)" style="fill:none;stroke:#1d1d1b;stroke-linecap:round;stroke-linejoin:round;stroke-width:0.5px"/><path d="M256.55,236.72l4.89-7.92" transform="translate(-28.17 -16.89)" style="fill:none;stroke:#1d1d1b;stroke-linecap:round;stroke-linejoin:round;stroke-width:0.5px"/><path d="M258.36,176.34l2.8-5.82" transform="translate(-28.17 -16.89)" style="fill:none;stroke:#1d1d1b;stroke-linecap:round;stroke-linejoin:round;stroke-width:0.5px"/><path d="M262.09,174.48c.47-1.4.93-2.8,1.4-4.2" transform="translate(-28.17 -16.89)" style="fill:none;stroke:#1d1d1b;stroke-linecap:round;stroke-linejoin:round;stroke-width:0.5px"/><path d="M299.92,399.2a35.9,35.9,0,0,0-5.92,4.41v3.3l18.42.81a19,19,0,0,1,5.58-5.05C312.92,399.21,305,398.93,299.92,399.2Z" transform="translate(-28.17 -16.89)" style="fill:#649dc5"/><path d="M315.22,394.67a29,29,0,0,0-15.3,4.53c5.11-.27,13,0,18.08,3.47a32.57,32.57,0,0,1,5.73-2.87l2.52.51S327.1,394.91,315.22,394.67Z" transform="translate(-28.17 -16.89)" style="fill:#1d1d1b"/><path d="M344.11,404.23l-2.33-6.3s-7.22,2.1-9.55,7.93a19.89,19.89,0,0,0-.92,2.92,108.46,108.46,0,0,1,12.33,1.27A9.83,9.83,0,0,1,344.11,404.23Z" transform="translate(-28.17 -16.89)" style="fill:#1d1d1b"/><path d="M347.6,416.41a11.81,11.81,0,0,1-4-6.36,108.46,108.46,0,0,0-12.33-1.27,17.83,17.83,0,0,0-.25,7.63A68.57,68.57,0,0,1,342,420.77c4.2,2.33,4,4.89,7.23,8.39s11.18,8.15,11.18,8.15Z" transform="translate(-28.17 -16.89)" style="fill:#649dc5"/><path d="M183.22,194.75a50.39,50.39,0,0,0,10.83-4.19c4.31-2.54,6.29-6.76,6.18-8.16S195.8,172,195.8,172l-8.3-3.7-4.28,22.84Z" transform="translate(-28.17 -16.89)" style="fill:#ededf1"/><path d="M185.35,179.8s8.24-.6,10.45-7.8" transform="translate(-28.17 -16.89)" style="fill:none;stroke:#1d1d1b;stroke-linecap:round;stroke-linejoin:round;stroke-width:0.5px"/><path d="M196.5,180.89a7.71,7.71,0,0,1,.58,2.68" transform="translate(-28.17 -16.89)" style="fill:none;stroke:#1d1d1b;stroke-linecap:round;stroke-linejoin:round;stroke-width:0.5px"/><path d="M197.53,180.54l.69,2.8" transform="translate(-28.17 -16.89)" style="fill:none;stroke:#1d1d1b;stroke-linecap:round;stroke-linejoin:round;stroke-width:0.5px"/><path d="M191.72,153.25,178.36,228s-6.21,3.55-9.36-2.05L180,149.76l13.45,1.63Z" transform="translate(-28.17 -16.89)" style="fill:#1d1d1b"/><polygon points="213.49 312.07 234.39 312.07 216.96 317.37 213.49 312.07" style="fill:#1d1d1b;stroke:#1d1d1b;stroke-linecap:round;stroke-linejoin:round;stroke-width:0.5px"/><polygon points="158.19 308.11 133.03 308.11 159.7 313.11 158.19 308.11" style="fill:#1d1d1b;stroke:#1d1d1b;stroke-linecap:round;stroke-linejoin:round;stroke-width:0.5px"/><path d="M260.23,333.86A45.06,45.06,0,0,1,273,338.52" transform="translate(-28.17 -16.89)" style="fill:none;stroke:#1d1d1b;stroke-linecap:round;stroke-linejoin:round;stroke-width:0.5px"/><path d="M158.63,325a3.14,3.14,0,0,0,1.66-4,25.46,25.46,0,0,1-1.19-5.36s-1-2.33,10.11-5.12S219.45,301,227.6,294c6.64-5.68,17.3-19.24,21.05-24.09L235,267.51c-3.29,4.59-9.43,12.86-12.26,14.85-4,2.8-29.59,8.86-38.44,11.42S153,303.4,150.71,306.83c-1,1.49-1.4,4.35-1.53,7.12,2.2,9.54,5.26,18.28,5.26,18.28l1.75,4.58,7.34,3.8Z" transform="translate(-28.17 -16.89)" style="fill:#1d1d1b"/><path d="M135.8,268.77a41.82,41.82,0,0,0-11.88,3.34c-5.13,2.56-8.39,11.18-4,16.31a23.64,23.64,0,0,0,9.32,6.76s7.46,23.64,16.08,32.32,15.85,13.58,18.18,18.94,22.82,65,24.34,70.14a14.36,14.36,0,0,1,0,8.85s3.85,0,4.78-2.8-9.78-31.92-14.21-45.43-9.09-31.09-12.35-34.95-16.91-19.58-16.91-19.58L133.24,280.5Z" transform="translate(-28.17 -16.89)" style="fill:#fff"/><path d="M191.18,414s-1.79-7.45,4.74-9.55,17.7-4.66,17.7-4.66" transform="translate(-28.17 -16.89)" style="fill:none;stroke:#1d1d1b;stroke-linecap:round;stroke-linejoin:round;stroke-width:0.5px"/><path d="M269.83,388.53s-10.43,3.81-11.77,11.27,3.18,10.42,11.77,10.25,39.6,0,39.6,0,1.83,3.25,7.42,3.95,18.64,2.4,18.64,2.4-5.59-6.36-8.86-7.29a59,59,0,0,0-8.62-1.4l-.48-.55a12.94,12.94,0,0,0-10.44-4.32c-7.49.45-19.3,1.14-21.58,1.14a52.73,52.73,0,0,0-9.39,1.5L267.81,397Z" transform="translate(-28.17 -16.89)" style="fill:#fff"/><path d="M258.06,405.62s4.51,17.48,9.75,21.44a29.57,29.57,0,0,0,11.06,5.06A34.06,34.06,0,0,0,294,437.57c8.4.68,56,.25,59.82,0s8.31-2.71,8.31-2.71l-21.7-23.47-43.77-4.48-30,.81Z" transform="translate(-28.17 -16.89)" style="fill:#efbf46"/><path d="M262.56,418.84s18.81,3.17,34.1,4.41,46.72,11,60.83,6.59" transform="translate(-28.17 -16.89)" style="fill:none;stroke:#1d1d1b;stroke-linecap:round;stroke-linejoin:round;stroke-width:0.5px"/><path d="M185.43,433.12c7.46-.23,15.61-.7,20.27-1.86,4.23-1.06,15.55-7.66,23.18-8a11.31,11.31,0,0,0-1-1.55s-3-7.69-5.36-12.11-3-9.56-5.36-9.79-6.76-.7-7.69,5.59-.23,19.34.47,20a6.7,6.7,0,0,1,1.18,2.16l-27.75-.53,1.29-6.83-2.77-.71s-11.1,3.51-16.18,6.15l.65,5.59S178,433.35,185.43,433.12Z" transform="translate(-28.17 -16.89)" style="fill:#1d1d1b"/><path d="M205.7,431.26c-4.66,1.16-12.81,1.63-20.27,1.86s-19.11-1.86-19.11-1.86l-.65-5.59a9.39,9.39,0,0,0-2.14,1.39c-2.57,2.56-1.17,6.06,2.33,7.69a42.74,42.74,0,0,0,18.64,3.5c7.45-.47,23.53-4.9,23.53-4.9s18.18,0,21-3.49c1.79-2.24.82-4.94-.12-6.61C221.25,423.6,209.93,430.2,205.7,431.26Z" transform="translate(-28.17 -16.89)" style="fill:#efbf46"/><path d="M197.27,347.1c-.74-5.16-4.56-12.84-4.56-12.84l-3,1.93s.35,1.16-6.17,3.26a41.39,41.39,0,0,1-4.2,1.07,48.41,48.41,0,0,1,5.23,15.33C191.11,351.89,197.27,347.1,197.27,347.1Z" transform="translate(-28.17 -16.89)" style="fill:#1d1d1b"/><path d="M179.37,340.52a113.42,113.42,0,0,1-13.28,1.73l7.27,18.69c2.91-.42,7.14-2.6,11.24-5.09A48.41,48.41,0,0,0,179.37,340.52Z" transform="translate(-28.17 -16.89)" style="fill:#649dc5"/><path d="M181.59,386.49l4.57,13.31A34.93,34.93,0,0,0,196.65,397l-3.11-13.25A68.45,68.45,0,0,1,181.59,386.49Z" transform="translate(-28.17 -16.89)" style="fill:#649dc5"/><path d="M206.63,376.26c-3.14,3.55-8.28,5.94-13.09,7.52L196.65,397a57,57,0,0,0,13.95-8.65A14.24,14.24,0,0,0,206.63,376.26Z" transform="translate(-28.17 -16.89)" style="fill:#1d1d1b"/><path d="M269.83,388.53s-8.67,4.05-7.27,9.4a11,11,0,0,0,6.7,7.69l6.86-.13Z" transform="translate(-28.17 -16.89)" style="fill:#1d1d1b"/><path d="M345.6,403.42s4.61,2.67,4.47,6.63a10.23,10.23,0,0,1-2.47,6.36" transform="translate(-28.17 -16.89)" style="fill:none;stroke:#1d1d1b;stroke-linecap:round;stroke-linejoin:round;stroke-width:0.5px"/><path d="M360.42,416.41c-.7-8.09-3.73-12.65-7.92-21.74a15.58,15.58,0,0,1-.67-12.43c-4.28,2.15-4.69,7.07-4.69,7.07l3.73,17.6s1.39,13.16,2.26,18.52c.42,2.57,3.44,7.48,6.73,12.14C359.24,430.47,360.91,422.06,360.42,416.41Z" transform="translate(-28.17 -16.89)" style="fill:#efbf46"/><path d="M389.31,421c-2.33-5.12-8.62-13.74-8.85-14.09s-7.69-23.89-11.19-26.45-11.41-.47-16.54,1.4a8.1,8.1,0,0,0-.9.38,15.58,15.58,0,0,0,.67,12.43c4.19,9.09,7.22,13.65,7.92,21.74.49,5.65-1.18,14.06-.56,21.16a102.9,102.9,0,0,0,8.66,10.93c2.27,2.09,11.47,1.86,14.74.93S391.64,426.13,389.31,421Z" transform="translate(-28.17 -16.89)" style="fill:#1d1d1b"/><path d="M374.63,450.11s-11.7-11.16-14.12-18.85-1.49-14.72,1.31-16.57,9.32,6.55,12.81,5.85,4.4-7.44,6.3-8.86,7.92,2.57,10.25,7.92,2.56,26.54,0,30.51S377.84,453.39,374.63,450.11Z" transform="translate(-28.17 -16.89)" style="fill:#649dc5"/><path d="M363,414.44s-3.49,6.1-1.16,12.85,14.87,25.39,19.48,25.4" transform="translate(-28.17 -16.89)" style="fill:none;stroke:#1d1d1b;stroke-linecap:round;stroke-linejoin:round;stroke-width:0.5px"/><path d="M197.78,228s-2.21-6,.82-9.74,5.94-4,5.94-4,29.47-6.29,32-7.1,9.78-14.74,9.78-14.74,5.36-1.57,15.26,1.11,12.94,7.16,12.94,7.16-18.41,32.21-28.08,33S197.78,228,197.78,228Z" transform="translate(-28.17 -16.89)" style="fill:#d19478"/><path d="M246.36,192.48s16,.06,26.82,10.6l1.38-2.33S267.22,191.49,246.36,192.48Z" transform="translate(-28.17 -16.89)" style="fill:#1d1d1b;stroke:#1d1d1b;stroke-linecap:round;stroke-linejoin:round;stroke-width:0.5px"/><polygon points="179.16 196.83 176.45 212.24 170.74 211.32 179.16 196.83" style="fill:#1d1d1b;stroke:#1d1d1b;stroke-linecap:round;stroke-linejoin:round;stroke-width:0.5px"/><path d="M207.33,213.73s.7-2.9-2.21-3.13-8.12-2.92-8.12-2.92-14.83,13.09-14.25,16,4.43.78,4.43.78,6.52,2.95,8.5,3.58,2,1.57,4.55-.53S207.33,213.73,207.33,213.73Z" transform="translate(-28.17 -16.89)" style="fill:#ededf1"/><path d="M177.69,189.85a13.16,13.16,0,0,1,4.61-1.53c-4.5-3.69-8.75-7.49-8.75-7.49s-10-4.49-12.12-2.39-.82,5,0,5.83a19.78,19.78,0,0,0,1.75,1.51l-.08,0,4.16,2.37c-2.45,2.05-2.8,7-2.8,7-3,4.19,0,7.08,0,7.08a10,10,0,0,0-3.66,5.44c2.31,2,5.59,4.45,8.41,6.54C170.63,208.26,174.82,191.48,177.69,189.85Z" transform="translate(-28.17 -16.89)" style="fill:#ededf1"/><path d="M164.46,202.3s-3-2.89,0-7.08c0,0,.35-5,2.8-7l-4.16-2.37c-.43.26-2.79,1.74-2.81,3.83a4.09,4.09,0,0,0,1.49,3.35s-3.15,2.33-2.68,4.08a8.92,8.92,0,0,0,1.4,2.93s-4.08,2.43-2.45,5a16.78,16.78,0,0,0,2.75,2.74A10,10,0,0,1,164.46,202.3Z" transform="translate(-28.17 -16.89)" style="fill:#efbf46"/><path d="M189.27,193.7c-.54-.37-1.14-.8-1.77-1.26a13.27,13.27,0,0,0-5.33,1.61c-2.75,1.56-6.72,17.08-8.29,23.65l.72.53c2.21,1.69,9,4.48,12.69,3.9,2.45-.38,10.72-12.12,10.66-14S194.75,197.43,189.27,193.7Z" transform="translate(-28.17 -16.89)" style="fill:#efbf46"/><path d="M182.17,194.05a13.27,13.27,0,0,1,5.33-1.61c-1.6-1.2-3.42-2.65-5.2-4.12a13.16,13.16,0,0,0-4.61,1.53c-2.87,1.63-7.06,18.41-8.48,24.43l4.67,3.42C175.45,211.13,179.42,195.61,182.17,194.05Z" transform="translate(-28.17 -16.89)" style="fill:#649dc5"/><path d="M169.59,186.25a8.65,8.65,0,0,1-4.08-2.22c-2-1.86.65-3.86,2.68-4.19s5,1.86,5,1.86Z" transform="translate(-28.17 -16.89)" style="fill:#efbf46"/><line x1="132.33" y1="183.11" x2="141.04" y2="187.99" style="fill:none;stroke:#1d1d1b;stroke-linecap:round;stroke-linejoin:round;stroke-width:0.5px"/><line x1="133.61" y1="176.11" x2="142.58" y2="180.85" style="fill:none;stroke:#1d1d1b;stroke-linecap:round;stroke-linejoin:round;stroke-width:0.5px"/><line x1="139.09" y1="171.29" x2="144.33" y2="173.66" style="fill:none;stroke:#1d1d1b;stroke-linecap:round;stroke-linejoin:round;stroke-width:0.5px"/><path d="M189.66,198.7c.35,1.13.71,2.25,1.07,3.37" transform="translate(-28.17 -16.89)" style="fill:none;stroke:#1d1d1b;stroke-linecap:round;stroke-linejoin:round;stroke-width:0.5px"/><path d="M188.11,200.34l1,2.8" transform="translate(-28.17 -16.89)" style="fill:none;stroke:#1d1d1b;stroke-linecap:round;stroke-linejoin:round;stroke-width:0.5px"/><path d="M181,160.3c1.63-.31,2.68-5.39,2.22-7.05-.43-1.51-10.42-6.68-15.64-6.08a6.2,6.2,0,0,1,.84,1.91c.23,1.4-2.15,6.76-2.15,6.76l-2.06,8.43h1.19l-1.77,6.83,1.22.23-2.06,7.36c3.29.59,11.64,1.93,15.07,1.11,4.31-1,2.09-5.44,2.09-5.44,4-2.09,1.17-7,1.17-7C185.31,163.29,181,160.3,181,160.3Z" transform="translate(-28.17 -16.89)" style="fill:#ededf1"/><path d="M163.63,171.1l1.77-6.83h-1.19l2.06-8.43s2.38-5.36,2.15-6.76a6.2,6.2,0,0,0-.84-1.91,4.66,4.66,0,0,0-1.31.31c-4.61,1.9-2.86,8.59-2.86,8.59-5,2.45-2,7.67-2,7.67-3.84,4.06-1.14,6.78-1.14,6.78a4.67,4.67,0,0,0-1.89,4.08c.12,2.79,3,3.84,3,3.84l1.36.25,2.06-7.36Z" transform="translate(-28.17 -16.89)" style="fill:#efbf46"/><line x1="132.12" y1="153.62" x2="151.79" y2="157.47" style="fill:none;stroke:#1d1d1b;stroke-linecap:round;stroke-linejoin:round;stroke-width:0.5px"/><line x1="133.26" y1="146.85" x2="152.95" y2="150.48" style="fill:none;stroke:#1d1d1b;stroke-linecap:round;stroke-linejoin:round;stroke-width:0.5px"/><line x1="135.24" y1="139.18" x2="152.83" y2="143.41" style="fill:none;stroke:#1d1d1b;stroke-linecap:round;stroke-linejoin:round;stroke-width:0.5px"/><path d="M194.52,166.51a22.13,22.13,0,0,1,7.7,1.66,6.29,6.29,0,0,0,.34-1.66c.11-2.73-6.41-7.53-10-8.32s-7.93.68-8.27,4.74a5.22,5.22,0,0,0,3.23,5.37,23.31,23.31,0,0,0,2,1.24A5.18,5.18,0,0,1,194.52,166.51Z" transform="translate(-28.17 -16.89)" style="fill:#ededf1"/><path d="M194.52,166.51a5.18,5.18,0,0,0-5,3,34.57,34.57,0,0,0,5.54,2.46c3.76,1.3,6.27-1.33,7.15-3.83A22.13,22.13,0,0,0,194.52,166.51Z" transform="translate(-28.17 -16.89)" style="fill:#efbf46"/><path d="M220.38,429.16c.62-.93,1.24-1.87,1.87-2.8" transform="translate(-28.17 -16.89)" style="fill:none;stroke:#1d1d1b;stroke-linecap:round;stroke-linejoin:round;stroke-width:0.5px"/><path d="M223.87,428.21a3.49,3.49,0,0,0,1.89-2.31" transform="translate(-28.17 -16.89)" style="fill:none;stroke:#1d1d1b;stroke-linecap:round;stroke-linejoin:round;stroke-width:0.5px"/><path d="M281,428.92a15.62,15.62,0,0,0,5.6,4" transform="translate(-28.17 -16.89)" style="fill:none;stroke:#1d1d1b;stroke-linecap:round;stroke-linejoin:round;stroke-width:0.5px"/><path d="M286.12,430.54a5.75,5.75,0,0,0,5.1,2.6" transform="translate(-28.17 -16.89)" style="fill:none;stroke:#1d1d1b;stroke-linecap:round;stroke-linejoin:round;stroke-width:0.5px"/><path d="M352.74,425A39.19,39.19,0,0,0,359,435" transform="translate(-28.17 -16.89)" style="fill:none;stroke:#1d1d1b;stroke-linecap:round;stroke-linejoin:round;stroke-width:0.5px"/><path d="M356.93,408.42c.15,2.41.31,4.82.46,7.22" transform="translate(-28.17 -16.89)" style="fill:none;stroke:#1d1d1b;stroke-linecap:round;stroke-linejoin:round;stroke-width:0.5px"/><circle cx="339.01" cy="408.54" r="2.53" style="fill:#efbf46"/><circle cx="358.19" cy="404.88" r="2.53" style="fill:#efbf46"/><circle cx="345.52" cy="419.2" r="2.53" style="fill:#efbf46"/><circle cx="359.21" cy="416.26" r="2.53" style="fill:#efbf46"/><circle cx="356.68" cy="427.63" r="2.53" style="fill:#efbf46"/></g></svg>